<svg xmlns="http://www.w3.org/2000/svg" viewBox="48.795 102.852 477.40947605787767 369.296875"><rect height="100%" width="100%" x="48.795" y="102.852" fill="rgba(255, 255, 255, 1)"/> <svg xmlns="http://www.w3.org/2000/svg" xmlns:xlink="http://www.w3.org/1999/xlink" version="1.1" id="Layer_1" x="118.795" y="172.852" viewBox="39.50989532470703 56.4365234375 213.608642578125 145.1642608642578" xml:space="preserve" height="229.296875" width="337.40947605787767" preserveAspectRatio="xMinYMin" enable-background="new 0 0 306.45 273.93" style="overflow: visible;"><path class="st0" d="M241.28,135.13c-8.5-2.52-17.22,2.3-19.48,10.78c-2.26,8.48,2.8,17.39,11.3,19.92   c8.5,2.52,17.22-2.3,19.48-10.78C254.84,146.57,249.78,137.65,241.28,135.13z" style="fill: #4A73E8; fill-opacity: 1;"></path><path class="st0" d="M150.92,88.71c8.54,0.06,15.51-6.99,15.58-15.9c0.06-8.92-6.81-16.56-15.34-16.37   c-15.35,0.35-26.5,12.09-26.33,14.32C125.14,74.86,140.78,88.64,150.92,88.71z" style="fill: #4A73E8; fill-opacity: 1;"></path><path class="st0" d="M242.04,182.13c-54.29-16.31-118.27-55.57-136.36-47.29c-14.58,6.68-9.15,30.82-17.41,36.45   c-5.27,3.6-21.66,2.05-32.93,0.45l-10.37-1.8c-0.29-0.05-0.57-0.06-0.85-0.06c-0.01,0-0.04-0.01-0.04-0.01l0,0   c-2.23,0.05-4.15,1.74-4.51,4.11c-0.28,1.8,0.44,3.53,1.71,4.61l-0.01,0.02c0.07,0.06,0.17,0.12,0.25,0.18   c0.1,0.07,0.19,0.15,0.3,0.21c9.98,7.07,68.21,28.44,77.67,21.08c9.64-7.5,4.97-21.02,13.58-27.81   c10.28-8.11,67.43,26.48,107.88,19.55v0c2.14,0.02,4.08-1.49,4.59-3.75C246.14,185.44,244.57,182.77,242.04,182.13z" style="fill: #4A73E8; fill-opacity: 1;"></path><path class="st0" d="M67.78,142.58c2.48,0.56,5.36-1.15,6.87-3.22c1.5-2.08,15.77-22.27,23.4-25.64   c14.62-6.45,68.39,27.49,84.87,21.37c7.3-2.71,16.31-22.67,21.49-37.23c2.55-7.18,4.17-13.04,4.2-14.86c0.01-0.11,0.01-0.22,0-0.33   c0-0.17,0-0.29,0-0.29l-0.02,0c-0.15-2.09-1.12-3.77-3.2-4.21c-3.06-0.64-6.34,3.72-6.82,4.3c-3.83,4.67-19.23,25.54-26.62,27.02   c-10.54,2.11-67.34-28.68-83.42-21.43c-16.08,7.25-24.22,49.2-24.22,49.2l0.03,0.01C64.08,139.62,65.3,142.02,67.78,142.58z" style="fill: #4A73E8; fill-opacity: 1;"></path></svg></svg>